<svg xmlns="http://www.w3.org/2000/svg" height="20" viewBox="0 -960 960 960" width="20"><path d="M483.665-275.077q11.46 0 19.59-8.103 8.13-8.103 8.13-19.562 0-11.46-8.103-19.59-8.103-8.13-19.563-8.13-11.459 0-19.589 8.103-8.13 8.103-8.13 19.563 0 11.459 8.103 19.589 8.103 8.13 19.562 8.13Zm-19.973-128.384h35.154q1.539-29.347 9.058-41.847t22.173-28.307q35.769-34.154 46.731-55.862 10.961-21.709 10.961-44.448 0-45.473-28.545-77.466-28.546-31.994-75.032-31.994-36.237 0-67.613 19.664-31.376 19.664-46.502 53.259l34.053 15q13.485-31.846 33.316-42.499 19.83-10.654 43.016-10.654 34.923 0 54.846 19.846 19.923 19.846 19.923 50.461 0 23.879-14.591 40.322-14.591 16.442-33.255 35.063-24.654 24.346-34.174 47.211-9.519 22.866-9.519 52.251Zm16.491 261.307q-69.397 0-131.067-26.386t-108.008-72.69q-46.338-46.305-72.646-107.788t-26.308-130.799q0-70.397 26.386-131.567t72.69-107.508q46.305-46.338 107.788-72.646t130.799-26.308q70.397 0 131.567 26.386t107.508 72.69q46.338 46.305 72.646 107.288t26.308 131.299q0 69.397-26.386 131.067t-72.69 108.008q-46.305 46.338-107.288 72.646t-131.299 26.308Zm-.208-28.923q128.294 0 218.621-90.301 90.327-90.302 90.327-218.597 0-128.294-90.301-218.621-90.302-90.327-218.597-90.327-128.294 0-218.621 90.301-90.327 90.302-90.327 218.597 0 128.294 90.301 218.621 90.302 90.327 218.597 90.327ZM480-480Z"/></svg>